<svg id="Camada_1" data-name="Camada 1" xmlns="http://www.w3.org/2000/svg" viewBox="0 0 255 78"><defs><style>.cls-1{fill:none;stroke:#000;stroke-miterlimit:10;stroke-width:2px;}</style></defs><path d="M22.83,34.26V44.39a1.59,1.59,0,0,0,.32,1,2.14,2.14,0,0,0,1.12.57v.72H14.68V46a2.32,2.32,0,0,0,1.13-.58,1.54,1.54,0,0,0,.31-1v-26a1.55,1.55,0,0,0-.31-1.05,2.32,2.32,0,0,0-1.13-.59V16H33.86a24.92,24.92,0,0,1,5.32.45A9.49,9.49,0,0,1,42.66,18a7.9,7.9,0,0,1,2.43,3,9.9,9.9,0,0,1,.88,4.1,9.14,9.14,0,0,1-1.67,5.44,7.74,7.74,0,0,1-3.82,2.85,20.6,20.6,0,0,1-6.62.84Zm0-5.06H33.07a10.13,10.13,0,0,0,4.3-.65,3.17,3.17,0,0,0,1.27-1.36,4.46,4.46,0,0,0,.48-2.06,4.38,4.38,0,0,0-.48-2,3.12,3.12,0,0,0-1.27-1.36,9.85,9.85,0,0,0-4.3-.66H22.83Z"/><path d="M58.1,34.2V44.39a1.59,1.59,0,0,0,.32,1,2.14,2.14,0,0,0,1.12.57v.72H50V46a2.28,2.28,0,0,0,1.12-.58,1.54,1.54,0,0,0,.32-1v-26a1.55,1.55,0,0,0-.32-1.05A2.28,2.28,0,0,0,50,16.73V16H69.17a30.11,30.11,0,0,1,5.57.41,10,10,0,0,1,3.59,1.41A7.14,7.14,0,0,1,81,21a10.45,10.45,0,0,1,.83,4.14q0,7.52-8.35,8.8l6,8.48a18.21,18.21,0,0,0,2.31,2.87,2.87,2.87,0,0,0,1.79.71v.72H72.43V46c.76-.12,1.15-.39,1.15-.81a5.93,5.93,0,0,0-1.06-2l-6.22-9Zm0-5.07H68.45A26.65,26.65,0,0,0,71.69,29a5,5,0,0,0,1.73-.57,3.44,3.44,0,0,0,1.71-3.33,3.46,3.46,0,0,0-1.71-3.33,4.78,4.78,0,0,0-1.72-.57,28.51,28.51,0,0,0-3.25-.13H58.1Z"/><path d="M103.53,15.47q8,0,12.74,4.34a15.2,15.2,0,0,1,5,11.75,15.22,15.22,0,0,1-2.39,8.24q-4.65,7.47-15.29,7.47-8,0-12.68-4.34a15.19,15.19,0,0,1-3.83-5.56,16.09,16.09,0,0,1-1.14-6,15.69,15.69,0,0,1,2.36-8.44Q92.81,15.6,103.53,15.47Zm0,5.22a10.59,10.59,0,0,0-7.32,2.61,10.24,10.24,0,0,0-3.47,8.07,10.24,10.24,0,0,0,3.47,8.07,11.67,11.67,0,0,0,14.71,0,10.21,10.21,0,0,0,2.66-3.8,10.89,10.89,0,0,0,.81-4.13,10.27,10.27,0,0,0-3.47-8.21A11,11,0,0,0,103.55,20.69Z"/><path d="M153.44,30.64q5.17,2,5.17,7.25a7.94,7.94,0,0,1-3,6.59,9.63,9.63,0,0,1-3.55,1.72,19.56,19.56,0,0,1-5,.53h-21V46a2.28,2.28,0,0,0,1.12-.58,1.58,1.58,0,0,0,.32-1.06v-26a1.55,1.55,0,0,0-.32-1.05,2.28,2.28,0,0,0-1.12-.59V16h20.79a20.83,20.83,0,0,1,4.82.45,8.34,8.34,0,0,1,3.2,1.53,7.39,7.39,0,0,1,2.72,6.17A6.71,6.71,0,0,1,153.44,30.64Zm-19.23-2.41H146a6.45,6.45,0,0,0,3.73-.79,3.26,3.26,0,0,0,1.2-2.79,3.17,3.17,0,0,0-1.13-2.75,6.62,6.62,0,0,0-3.8-.83H134.21Zm0,13.44H145.6a8.87,8.87,0,0,0,4.57-.88,3.61,3.61,0,0,0,1.6-3.31,3.65,3.65,0,0,0-1.6-3.31,8.92,8.92,0,0,0-4.57-.87H134.21Z"/><path d="M194.49,18.37V35.59q0,4.89-1.8,7.32-3.24,4.37-13.39,4.36-7.35,0-11.23-2.36a7.24,7.24,0,0,1-3.16-3.74,16.29,16.29,0,0,1-.85-5.58V18.37a1.55,1.55,0,0,0-.32-1.05,2.28,2.28,0,0,0-1.12-.59V16h9.59v.72a2.2,2.2,0,0,0-1.12.57,1.57,1.57,0,0,0-.32,1.07V33.7a18.86,18.86,0,0,0,.29,3.93,4.44,4.44,0,0,0,1.1,2.13q2.16,2.3,7.38,2.29T187,39.76A4.69,4.69,0,0,0,188,37.63a19.58,19.58,0,0,0,.29-3.93V18.37a1.55,1.55,0,0,0-.31-1.05,2.32,2.32,0,0,0-1.13-.59V16h9.05v.72a2.32,2.32,0,0,0-1.13.59A1.55,1.55,0,0,0,194.49,18.37Z"/><path d="M219.75,46.73,208.42,25.51V44.37a1.58,1.58,0,0,0,.32,1.06,2.28,2.28,0,0,0,1.12.58v.72h-9V46a2.28,2.28,0,0,0,1.12-.58,1.58,1.58,0,0,0,.32-1.06v-26a1.51,1.51,0,0,0-.32-1,2.28,2.28,0,0,0-1.12-.59V16h11.84v.72A1.21,1.21,0,0,0,211.62,18a2.13,2.13,0,0,0,.32,1l8.38,15.88,8.49-15.61a3.84,3.84,0,0,0,.56-1.5c0-.62-.37-1-1.12-1V16h11.61v.72a2.28,2.28,0,0,0-1.12.59,1.51,1.51,0,0,0-.32,1v26a1.58,1.58,0,0,0,.32,1.06,2.28,2.28,0,0,0,1.12.58v.72h-9.59V46a2.14,2.14,0,0,0,1.12-.57,1.57,1.57,0,0,0,.32-1.07V25.51Z"/><path d="M26.32,51.86v6.6a4.68,4.68,0,0,1-.69,2.8c-.82,1.12-2.54,1.68-5.13,1.68A8.33,8.33,0,0,1,16.19,62,2.74,2.74,0,0,1,15,60.6a6.21,6.21,0,0,1-.33-2.14v-6.6a.61.61,0,0,0-.12-.41,1,1,0,0,0-.43-.22V51h3.67v.28a.79.79,0,0,0-.43.22.61.61,0,0,0-.12.41v5.87a7.74,7.74,0,0,0,.11,1.51,1.88,1.88,0,0,0,.42.82,3.82,3.82,0,0,0,2.83.88,3.81,3.81,0,0,0,2.84-.88,1.88,1.88,0,0,0,.42-.82A7.74,7.74,0,0,0,24,57.73V51.86a.61.61,0,0,0-.12-.41,1,1,0,0,0-.43-.22V51h3.47v.28a1,1,0,0,0-.44.22A.61.61,0,0,0,26.32,51.86Z"/><path d="M31.16,56.36v5.48a.66.66,0,0,0,.12.42,1,1,0,0,0,.43.23v.24H28.5v-.24a.83.83,0,0,0,.43-.23.61.61,0,0,0,.12-.41V54a.61.61,0,0,0-.12-.41.9.9,0,0,0-.43-.23v-.24h3.71v.24c-.25.06-.38.17-.38.33a.76.76,0,0,0,.28.49l5.18,5.14V54a.61.61,0,0,0-.12-.41.76.76,0,0,0-.43-.23v-.24H40v.24a.76.76,0,0,0-.43.23.61.61,0,0,0-.12.41v7.89a.61.61,0,0,0,.12.41.82.82,0,0,0,.43.24v.24H36.49v-.24c.25-.05.38-.16.38-.32a.42.42,0,0,0-.11-.25c-.07-.08-.22-.25-.47-.5Z"/><path d="M44.51,54v7.89a.61.61,0,0,0,.12.41.82.82,0,0,0,.43.24v.24H41.64v-.24a.83.83,0,0,0,.43-.23.61.61,0,0,0,.12-.41V54a.61.61,0,0,0-.12-.41.9.9,0,0,0-.43-.23v-.24h3.42v.24a.76.76,0,0,0-.43.23A.61.61,0,0,0,44.51,54Z"/><path d="M51.73,59.67l2.35-5.11a1.84,1.84,0,0,0,.2-.66c0-.28-.18-.48-.56-.59v-.24h3.74v.24a1.11,1.11,0,0,0-.5.27,2.71,2.71,0,0,0-.4.68l-3.38,7.12A1.37,1.37,0,0,0,53,62c0,.29.19.47.57.55v.23H49.77V62.5c.38-.08.56-.26.56-.55a1.48,1.48,0,0,0-.18-.57l-3.38-7.12a2.53,2.53,0,0,0-.4-.68,1.06,1.06,0,0,0-.5-.27v-.24h3.87v.24c-.37.11-.55.31-.55.59a1.8,1.8,0,0,0,.22.66Z"/><path d="M61.32,58.62V61h6.13a.61.61,0,0,0,.41-.12.82.82,0,0,0,.23-.43h.24v2.85h-.24a.82.82,0,0,0-.22-.42.6.6,0,0,0-.42-.13h-9v-.24a.83.83,0,0,0,.43-.23.61.61,0,0,0,.12-.41V54a.61.61,0,0,0-.12-.41.9.9,0,0,0-.43-.23v-.24h8.73a.57.57,0,0,0,.42-.13.82.82,0,0,0,.23-.43h.23v2.86h-.23a.82.82,0,0,0-.23-.43.62.62,0,0,0-.42-.12H61.32v2.12H65a.63.63,0,0,0,.41-.12.9.9,0,0,0,.23-.43h.24v2.79H65.6a.82.82,0,0,0-.22-.43.6.6,0,0,0-.42-.13Z"/><path d="M72.65,58.76v3.08a.56.56,0,0,0,.13.41.82.82,0,0,0,.43.24v.24H69.79v-.24a.83.83,0,0,0,.43-.23.61.61,0,0,0,.12-.41V54a.61.61,0,0,0-.12-.41.9.9,0,0,0-.43-.23v-.24h6.33a11,11,0,0,1,1.88.12,3.31,3.31,0,0,1,1.16.45,2.47,2.47,0,0,1,1,2.23,2.51,2.51,0,0,1-.65,1.83,4,4,0,0,1-2.07,1l1.83,2.55a6,6,0,0,0,.79,1,1.47,1.47,0,0,0,.68.32v.24H76.73v-.24q.45-.12.45-.39a1.2,1.2,0,0,0-.28-.57L75,58.76Zm0-1.75h3.49a3.07,3.07,0,0,0,1.17-.17.92.92,0,0,0,.54-.93.93.93,0,0,0-.38-.85,2.63,2.63,0,0,0-1.33-.24H72.65Z"/><path d="M91,53.94l-1.16,2.25-.21-.11a.58.58,0,0,0-.18-.45A3.84,3.84,0,0,0,88,54.9a6.79,6.79,0,0,0-1.94-.28,4.57,4.57,0,0,0-1.49.23c-.62.23-.93.55-.93,1a.62.62,0,0,0,.45.6,7.65,7.65,0,0,0,1.74.28l1.36.1A6.35,6.35,0,0,1,90,57.5a2.59,2.59,0,0,1,.85.83,2.73,2.73,0,0,1-.9,3.79,6.37,6.37,0,0,1-3.44.82A10.08,10.08,0,0,1,82.24,62,.6.6,0,0,0,82,62a.4.4,0,0,0-.32.21l-.22-.09,1-2.36.21.09v.07a.52.52,0,0,0,.17.38,3.93,3.93,0,0,0,1.5.66,8.4,8.4,0,0,0,2.09.28,4.91,4.91,0,0,0,1.64-.25c.6-.19.9-.51.9-.94a.76.76,0,0,0-.62-.74A7.49,7.49,0,0,0,86.87,59l-1.36-.11a12,12,0,0,1-1.67-.23,3.55,3.55,0,0,1-1-.4,2.36,2.36,0,0,1-.86-.94A2.79,2.79,0,0,1,81.65,56,2.68,2.68,0,0,1,83,53.62a5.75,5.75,0,0,1,3.07-.76,7.27,7.27,0,0,1,1.85.22,12.34,12.34,0,0,1,2,.77,1.54,1.54,0,0,0,.49.17.69.69,0,0,0,.36-.19Z"/><path d="M95.5,54v7.89a.61.61,0,0,0,.12.41.82.82,0,0,0,.43.24v.24H92.63v-.24a.83.83,0,0,0,.43-.23.61.61,0,0,0,.12-.41V54a.61.61,0,0,0-.12-.41.9.9,0,0,0-.43-.23v-.24h3.42v.24a.76.76,0,0,0-.43.23A.61.61,0,0,0,95.5,54Z"/><path d="M98.3,61.85V54a.61.61,0,0,0-.12-.41.9.9,0,0,0-.43-.23v-.24h5.67a7,7,0,0,1,2.78.44,3.82,3.82,0,0,1,2.07,2.05,5.85,5.85,0,0,1,.44,2.34,4.67,4.67,0,0,1-1.48,3.75,4,4,0,0,1-1.56.83,8.52,8.52,0,0,1-2.25.25H97.75v-.24a.83.83,0,0,0,.43-.23A.61.61,0,0,0,98.3,61.85Zm2.31-.87h2.47a3.36,3.36,0,0,0,2.47-.78,3.72,3.72,0,0,0,0-4.61,2.4,2.4,0,0,0-1-.59,5.11,5.11,0,0,0-1.48-.18h-2.47Z"/><path d="M117.5,60.31h-4.44l-.5,1.06a1.51,1.51,0,0,0-.18.59c0,.28.18.45.55.53v.24h-3.55v-.24a1,1,0,0,0,.49-.2,2.23,2.23,0,0,0,.37-.58l3.53-7.14a1.71,1.71,0,0,0,.2-.71c0-.24-.16-.42-.48-.55v-.24h3.75v.24a.61.61,0,0,0-.47.58,1.6,1.6,0,0,0,.21.7l3.66,6.93a3,3,0,0,0,.48.73,1,1,0,0,0,.52.24v.24h-4v-.24c.38-.06.56-.24.56-.53a1.54,1.54,0,0,0-.21-.66ZM116.81,59l-1.58-3.11L113.72,59Z"/><path d="M123,61.85V54a.61.61,0,0,0-.12-.41,1,1,0,0,0-.44-.23v-.24h5.67a7.08,7.08,0,0,1,2.79.44A3.8,3.8,0,0,1,133,55.56a5.68,5.68,0,0,1,.44,2.34,4.69,4.69,0,0,1-1.47,3.75,4.16,4.16,0,0,1-1.57.83,8.42,8.42,0,0,1-2.25.25h-5.67v-.24a.76.76,0,0,0,.43-.23A.56.56,0,0,0,123,61.85Zm2.31-.87h2.47a3.37,3.37,0,0,0,2.47-.78,3.72,3.72,0,0,0,0-4.61,2.47,2.47,0,0,0-1-.59,5.11,5.11,0,0,0-1.48-.18h-2.47Z"/><path d="M137.74,58.62V61h6.14a.63.63,0,0,0,.41-.12.9.9,0,0,0,.23-.43h.24v2.85h-.24a.76.76,0,0,0-.23-.42.56.56,0,0,0-.41-.13h-9v-.24a.83.83,0,0,0,.43-.23.61.61,0,0,0,.12-.41V54a.61.61,0,0,0-.12-.41.9.9,0,0,0-.43-.23v-.24h8.73a.57.57,0,0,0,.42-.13.82.82,0,0,0,.23-.43h.23v2.86h-.23a.82.82,0,0,0-.23-.43.62.62,0,0,0-.42-.12h-5.87v2.12h3.65a.6.6,0,0,0,.4-.12.82.82,0,0,0,.24-.43h.24v2.79H142a.82.82,0,0,0-.23-.43.56.56,0,0,0-.41-.13Z"/><path d="M151.19,61.85V54a.61.61,0,0,0-.12-.41,1,1,0,0,0-.43-.23v-.24h5.66a7.08,7.08,0,0,1,2.79.44,3.8,3.8,0,0,1,2.06,2.05,5.68,5.68,0,0,1,.44,2.34,4.69,4.69,0,0,1-1.47,3.75,4.08,4.08,0,0,1-1.57.83,8.42,8.42,0,0,1-2.25.25h-5.66v-.24a.76.76,0,0,0,.42-.23A.56.56,0,0,0,151.19,61.85ZM153.5,61H156a3.37,3.37,0,0,0,2.47-.78,3.72,3.72,0,0,0,0-4.61,2.47,2.47,0,0,0-1-.59,5.11,5.11,0,0,0-1.48-.18H153.5Z"/><path d="M168.51,52.86A6.14,6.14,0,0,1,172.35,54,4.7,4.7,0,0,1,174.19,58a4.51,4.51,0,0,1-1.84,3.78,6.79,6.79,0,0,1-7.65,0,5,5,0,0,1,0-7.73A6.34,6.34,0,0,1,168.51,52.86Zm0,1.83a3.27,3.27,0,0,0-2.44,1,3.33,3.33,0,0,0,0,4.49,3.26,3.26,0,0,0,2.45,1,3.22,3.22,0,0,0,2.43-1,3,3,0,0,0,.88-2.2,3.06,3.06,0,0,0-.88-2.29A3.35,3.35,0,0,0,168.52,54.69Z"/><path d="M187.56,62.73l-4.35-8.14v7.23a.61.61,0,0,0,.12.41.86.86,0,0,0,.43.22v.28H180.3v-.28a.82.82,0,0,0,.43-.22.61.61,0,0,0,.12-.41v-10a.6.6,0,0,0-.12-.4.9.9,0,0,0-.43-.22V51h4.54v.28a.46.46,0,0,0-.4.47.86.86,0,0,0,.12.4l3.21,6.09,3.26-6a1.41,1.41,0,0,0,.21-.58c0-.23-.14-.36-.43-.39V51h4.46v.28a1,1,0,0,0-.44.22.6.6,0,0,0-.12.4v10a.61.61,0,0,0,.12.41.9.9,0,0,0,.44.22v.28h-3.68v-.28a.83.83,0,0,0,.43-.22.61.61,0,0,0,.12-.41V54.59Z"/><path d="M200,54v7.89a.61.61,0,0,0,.12.41.82.82,0,0,0,.43.24v.24h-3.42v-.24a.76.76,0,0,0,.43-.23.61.61,0,0,0,.13-.41V54a.61.61,0,0,0-.12-.41,1,1,0,0,0-.44-.23v-.24h3.42v.24a.76.76,0,0,0-.43.23A.61.61,0,0,0,200,54Z"/><path d="M204.94,56.36v5.48a.66.66,0,0,0,.12.42,1,1,0,0,0,.43.23v.24h-3.21v-.24a.79.79,0,0,0,.43-.23.61.61,0,0,0,.12-.41V54a.61.61,0,0,0-.12-.41.9.9,0,0,0-.43-.23v-.24H206v.24c-.25.06-.38.17-.38.33a.81.81,0,0,0,.28.49l5.18,5.14V54a.61.61,0,0,0-.12-.41.76.76,0,0,0-.43-.23v-.24h3.21v.24a.79.79,0,0,0-.43.23.61.61,0,0,0-.12.41v7.89a.61.61,0,0,0,.12.41.87.87,0,0,0,.43.24v.24h-3.46v-.24c.25-.05.38-.16.38-.32a.4.4,0,0,0-.1-.25c-.07-.08-.23-.25-.48-.5Z"/><path d="M223.69,58.52h-5.4v3.32a.61.61,0,0,0,.12.41.82.82,0,0,0,.43.24v.24h-3.42v-.24a.76.76,0,0,0,.43-.23.61.61,0,0,0,.13-.41V54a.61.61,0,0,0-.12-.41,1,1,0,0,0-.44-.23v-.24h3.42v.24a.76.76,0,0,0-.43.23.6.6,0,0,0-.12.4v2.83h5.4V53.94a.6.6,0,0,0-.12-.4.85.85,0,0,0-.43-.23v-.24h3.42v.24a.79.79,0,0,0-.44.23A.61.61,0,0,0,226,54v7.89a.61.61,0,0,0,.12.41.86.86,0,0,0,.44.24v.24h-3.42v-.24a.83.83,0,0,0,.43-.23.61.61,0,0,0,.12-.41Z"/><path d="M233.69,52.86A6.16,6.16,0,0,1,237.53,54,4.7,4.7,0,0,1,239.37,58a4.51,4.51,0,0,1-1.84,3.78,6.79,6.79,0,0,1-7.65,0,5,5,0,0,1,0-7.73A6.34,6.34,0,0,1,233.69,52.86Zm0,1.83a3.27,3.27,0,0,0-2.44,1,3.33,3.33,0,0,0,0,4.49,3.55,3.55,0,0,0,4.88,0,3,3,0,0,0,.87-2.2,3.09,3.09,0,0,0-.87-2.29A3.36,3.36,0,0,0,233.7,54.69Z"/><polyline class="cls-1" points="4 45 4 72.32 31.3 72.32"/><polyline class="cls-1" points="249.79 32.33 249.77 5.02 222.47 5.04"/></svg>